<?xml version="1.0" encoding="UTF-8" standalone="no"?>
<svg width="393px" height="347px" viewBox="0 0 393 347" version="1.1" xmlns="http://www.w3.org/2000/svg" xmlns:xlink="http://www.w3.org/1999/xlink">
    <!-- Generator: Sketch 3.6.1 (26313) - http://www.bohemiancoding.com/sketch -->
    <title>Hand</title>
    <desc>Created with Sketch.</desc>
    <defs></defs>
    <g id="Page-1" stroke="none" stroke-width="1" fill="none" fill-rule="evenodd">
        <path d="M125,132 L125,133 L123,133 L123,134 L120,134 L120,135 L117,135 L117,136 L113,136 L113,137 L109,137 L109,138 L103,138 L103,139 L97,139 L97,140 L92,140 L92,141 L88,141 L88,142 L85,142 L85,143 L81,143 L81,144 L78,144 L78,145 L75,145 L75,146 L71,146 L71,147 L66,147 L66,148 L59,148 L59,149 L54,149 L54,150 L50,150 L50,151 L47,151 L47,152 L43,152 L43,153 L41,153 L41,154 L38,154 L38,155 L36,155 L36,156 L35,156 L35,157 L33,157 L33,158 L32,158 L32,159 L31,159 L31,160 L30,160 L30,162 L29,162 L29,167 L30,167 L30,169 L31,169 L31,170 L32,170 L32,171 L33,171 L33,172 L35,172 L35,173 L39,173 L39,174 L47,174 L47,173 L53,173 L53,172 L57,172 L57,171 L61,171 L61,170 L65,170 L65,169 L68,169 L68,168 L71,168 L71,167 L76,167 L76,166 L82,166 L82,165 L91,165 L91,164 L104,164 L104,163 L116,163 L116,162 L124,162 L124,161 L127,161 L127,162 L129,162 L129,164 L128,164 L128,166 L127,166 L127,171 L126,171 L126,172 L125,172 L125,173 L123,173 L123,174 L121,174 L121,175 L118,175 L118,176 L115,176 L115,177 L111,177 L111,178 L106,178 L106,179 L99,179 L99,180 L91,180 L91,181 L86,181 L86,182 L82,182 L82,183 L79,183 L79,184 L76,184 L76,185 L74,185 L74,186 L71,186 L71,187 L68,187 L68,188 L66,188 L66,189 L63,189 L63,190 L60,190 L60,191 L57,191 L57,192 L53,192 L53,193 L49,193 L49,194 L45,194 L45,195 L40,195 L40,196 L36,196 L36,197 L33,197 L33,198 L30,198 L30,199 L27,199 L27,200 L25,200 L25,201 L22,201 L22,202 L20,202 L20,203 L17,203 L17,204 L13,204 L13,205 L10,205 L10,206 L7,206 L7,207 L6,207 L6,208 L4,208 L4,209 L3,209 L3,210 L2,210 L2,211 L1,211 L1,214 L0,214 L0,218 L1,218 L1,221 L2,221 L2,223 L3,223 L3,225 L4,225 L4,226 L5,226 L5,227 L8,227 L8,228 L13,228 L13,227 L18,227 L18,226 L21,226 L21,225 L25,225 L25,224 L28,224 L28,223 L31,223 L31,222 L34,222 L34,221 L37,221 L37,220 L40,220 L40,219 L43,219 L43,218 L45,218 L45,217 L49,217 L49,216 L52,216 L52,215 L57,215 L57,214 L63,214 L63,213 L69,213 L69,212 L76,212 L76,211 L83,211 L83,210 L88,210 L88,209 L92,209 L92,208 L96,208 L96,207 L100,207 L100,206 L104,206 L104,205 L108,205 L108,204 L112,204 L112,203 L116,203 L116,202 L120,202 L120,201 L126,201 L126,200 L135,200 L135,201 L137,201 L137,202 L138,202 L138,203 L139,203 L139,209 L138,209 L138,211 L137,211 L137,212 L136,212 L136,213 L134,213 L134,214 L132,214 L132,215 L128,215 L128,216 L125,216 L125,217 L121,217 L121,218 L117,218 L117,219 L112,219 L112,220 L108,220 L108,221 L103,221 L103,222 L99,222 L99,223 L94,223 L94,224 L89,224 L89,225 L85,225 L85,226 L82,226 L82,227 L79,227 L79,228 L76,228 L76,229 L73,229 L73,230 L70,230 L70,231 L68,231 L68,232 L65,232 L65,233 L63,233 L63,234 L60,234 L60,235 L58,235 L58,236 L55,236 L55,237 L52,237 L52,238 L48,238 L48,239 L45,239 L45,240 L41,240 L41,241 L37,241 L37,242 L33,242 L33,243 L28,243 L28,244 L24,244 L24,245 L20,245 L20,246 L15,246 L15,247 L11,247 L11,248 L9,248 L9,249 L8,249 L8,250 L7,250 L7,252 L6,252 L6,262 L7,262 L7,264 L8,264 L8,266 L9,266 L9,267 L11,267 L11,268 L14,268 L14,269 L27,269 L27,268 L33,268 L33,267 L38,267 L38,266 L43,266 L43,265 L48,265 L48,264 L52,264 L52,263 L57,263 L57,262 L61,262 L61,261 L65,261 L65,260 L70,260 L70,259 L76,259 L76,258 L83,258 L83,257 L90,257 L90,256 L94,256 L94,255 L97,255 L97,254 L99,254 L99,253 L101,253 L101,252 L103,252 L103,251 L104,251 L104,250 L106,250 L106,249 L108,249 L108,248 L110,248 L110,247 L112,247 L112,246 L114,246 L114,245 L116,245 L116,244 L117,244 L117,243 L119,243 L119,242 L121,242 L121,241 L123,241 L123,240 L124,240 L124,239 L126,239 L126,238 L128,238 L128,237 L129,237 L129,236 L131,236 L131,235 L132,235 L132,234 L134,234 L134,233 L135,233 L135,232 L136,232 L136,231 L138,231 L138,230 L139,230 L139,229 L140,229 L140,228 L141,228 L141,227 L143,227 L143,226 L144,226 L144,225 L145,225 L145,224 L146,224 L146,223 L147,223 L147,221 L148,221 L148,220 L149,220 L149,219 L150,219 L150,217 L151,217 L151,216 L152,216 L152,215 L153,215 L153,213 L154,213 L154,207 L153,207 L153,202 L152,202 L152,198 L151,198 L151,194 L150,194 L150,191 L149,191 L149,184 L150,184 L150,181 L151,181 L151,178 L152,178 L152,164 L151,164 L151,161 L150,161 L150,160 L149,160 L149,158 L148,158 L148,156 L147,156 L147,153 L148,153 L148,152 L150,152 L150,151 L152,151 L152,152 L155,152 L155,153 L157,153 L157,154 L159,154 L159,155 L160,155 L160,156 L162,156 L162,157 L163,157 L163,159 L164,159 L164,160 L165,160 L165,162 L166,162 L166,167 L167,167 L167,170 L168,170 L168,172 L169,172 L169,174 L171,174 L171,175 L173,175 L173,176 L175,176 L175,175 L180,175 L180,174 L185,174 L185,173 L188,173 L188,172 L190,172 L190,171 L191,171 L191,170 L192,170 L192,169 L194,169 L194,168 L195,168 L195,167 L196,167 L196,166 L197,166 L197,165 L198,165 L198,164 L199,164 L199,163 L200,163 L200,162 L201,162 L201,161 L202,161 L202,160 L203,160 L203,159 L204,159 L204,157 L205,157 L205,156 L206,156 L206,155 L207,155 L207,154 L208,154 L208,153 L209,153 L209,152 L210,152 L210,151 L211,151 L211,150 L212,150 L212,149 L213,149 L213,148 L214,148 L214,147 L215,147 L215,146 L216,146 L216,145 L218,145 L218,144 L219,144 L219,143 L220,143 L220,142 L221,142 L221,141 L222,141 L222,140 L223,140 L223,139 L224,139 L224,138 L225,138 L225,137 L226,137 L226,136 L227,136 L227,135 L228,135 L228,134 L229,134 L229,133 L230,133 L230,132 L231,132 L231,131 L233,131 L233,130 L234,130 L234,129 L236,129 L236,128 L238,128 L238,127 L241,127 L241,126 L243,126 L243,127 L245,127 L245,128 L246,128 L246,129 L247,129 L247,132 L246,132 L246,134 L245,134 L245,135 L244,135 L244,136 L243,136 L243,137 L242,137 L242,138 L241,138 L241,140 L240,140 L240,141 L239,141 L239,142 L238,142 L238,143 L237,143 L237,144 L236,144 L236,145 L235,145 L235,146 L234,146 L234,147 L233,147 L233,148 L232,148 L232,149 L231,149 L231,150 L230,150 L230,152 L229,152 L229,153 L228,153 L228,154 L227,154 L227,156 L226,156 L226,157 L225,157 L225,158 L224,158 L224,160 L223,160 L223,161 L222,161 L222,162 L221,162 L221,164 L220,164 L220,165 L219,165 L219,167 L218,167 L218,168 L217,168 L217,171 L218,171 L218,172 L221,172 L221,171 L222,171 L222,170 L223,170 L223,169 L224,169 L224,168 L225,168 L225,167 L226,167 L226,166 L227,166 L227,165 L228,165 L228,164 L229,164 L229,163 L231,163 L231,162 L232,162 L232,161 L233,161 L233,160 L235,160 L235,159 L236,159 L236,158 L237,158 L237,157 L239,157 L239,156 L240,156 L240,155 L242,155 L242,154 L243,154 L243,153 L244,153 L244,152 L246,152 L246,151 L247,151 L247,150 L248,150 L248,149 L250,149 L250,148 L251,148 L251,147 L252,147 L252,146 L254,146 L254,145 L255,145 L255,144 L257,144 L257,143 L259,143 L259,142 L261,142 L261,141 L266,141 L266,142 L267,142 L267,143 L268,143 L268,144 L269,144 L269,149 L268,149 L268,150 L267,150 L267,151 L266,151 L266,152 L265,152 L265,153 L264,153 L264,154 L262,154 L262,155 L261,155 L261,156 L259,156 L259,157 L258,157 L258,158 L257,158 L257,159 L255,159 L255,160 L254,160 L254,161 L253,161 L253,162 L252,162 L252,163 L250,163 L250,164 L249,164 L249,165 L248,165 L248,166 L247,166 L247,167 L246,167 L246,168 L244,168 L244,169 L243,169 L243,170 L242,170 L242,171 L241,171 L241,172 L239,172 L239,173 L238,173 L238,174 L237,174 L237,175 L235,175 L235,176 L234,176 L234,177 L233,177 L233,178 L231,178 L231,179 L230,179 L230,181 L229,181 L229,183 L230,183 L230,184 L231,184 L231,185 L235,185 L235,184 L237,184 L237,183 L240,183 L240,182 L242,182 L242,181 L245,181 L245,180 L248,180 L248,179 L252,179 L252,178 L255,178 L255,177 L257,177 L257,176 L260,176 L260,175 L263,175 L263,174 L265,174 L265,173 L267,173 L267,172 L270,172 L270,171 L278,171 L278,172 L279,172 L279,173 L280,173 L280,178 L279,178 L279,180 L278,180 L278,181 L276,181 L276,182 L274,182 L274,183 L272,183 L272,184 L269,184 L269,185 L266,185 L266,186 L263,186 L263,187 L260,187 L260,188 L258,188 L258,189 L256,189 L256,190 L254,190 L254,191 L252,191 L252,192 L250,192 L250,193 L248,193 L248,194 L245,194 L245,195 L240,195 L240,196 L236,196 L236,197 L234,197 L234,198 L233,198 L233,199 L232,199 L232,200 L233,200 L233,203 L234,203 L234,204 L235,204 L235,205 L236,205 L236,206 L238,206 L238,207 L242,207 L242,208 L251,208 L251,207 L258,207 L258,206 L265,206 L265,207 L269,207 L269,208 L270,208 L270,209 L271,209 L271,212 L270,212 L270,213 L269,213 L269,214 L268,214 L268,215 L265,215 L265,216 L262,216 L262,217 L253,217 L253,218 L250,218 L250,219 L247,219 L247,220 L243,220 L243,221 L235,221 L235,220 L227,220 L227,221 L225,221 L225,222 L223,222 L223,223 L222,223 L222,224 L220,224 L220,225 L218,225 L218,226 L216,226 L216,227 L215,227 L215,228 L214,228 L214,229 L213,229 L213,230 L211,230 L211,231 L210,231 L210,232 L208,232 L208,233 L207,233 L207,234 L205,234 L205,235 L204,235 L204,236 L202,236 L202,237 L200,237 L200,238 L198,238 L198,239 L196,239 L196,240 L193,240 L193,241 L191,241 L191,242 L187,242 L187,243 L183,243 L183,244 L179,244 L179,245 L176,245 L176,246 L173,246 L173,247 L171,247 L171,248 L170,248 L170,249 L168,249 L168,250 L166,250 L166,251 L165,251 L165,252 L163,252 L163,253 L162,253 L162,254 L161,254 L161,255 L160,255 L160,256 L159,256 L159,257 L157,257 L157,258 L156,258 L156,259 L155,259 L155,260 L153,260 L153,261 L152,261 L152,262 L151,262 L151,263 L149,263 L149,264 L148,264 L148,265 L147,265 L147,266 L146,266 L146,267 L145,267 L145,268 L143,268 L143,269 L142,269 L142,270 L141,270 L141,271 L139,271 L139,272 L138,272 L138,273 L137,273 L137,274 L135,274 L135,275 L134,275 L134,276 L133,276 L133,277 L131,277 L131,278 L130,278 L130,279 L129,279 L129,280 L127,280 L127,281 L126,281 L126,282 L125,282 L125,283 L124,283 L124,284 L123,284 L123,285 L122,285 L122,286 L121,286 L121,287 L120,287 L120,288 L119,288 L119,289 L118,289 L118,290 L117,290 L117,291 L116,291 L116,292 L115,292 L115,293 L114,293 L114,294 L113,294 L113,295 L112,295 L112,297 L111,297 L111,298 L110,298 L110,299 L109,299 L109,300 L108,300 L108,301 L107,301 L107,302 L106,302 L106,303 L105,303 L105,304 L104,304 L104,305 L103,305 L103,306 L102,306 L102,307 L101,307 L101,308 L99,308 L99,309 L98,309 L98,310 L97,310 L97,311 L96,311 L96,312 L94,312 L94,313 L93,313 L93,314 L92,314 L92,315 L91,315 L91,316 L89,316 L89,317 L88,317 L88,318 L87,318 L87,319 L85,319 L85,320 L84,320 L84,321 L83,321 L83,322 L81,322 L81,323 L80,323 L80,324 L79,324 L79,325 L78,325 L78,326 L77,326 L77,327 L76,327 L76,328 L75,328 L75,329 L74,329 L74,330 L73,330 L73,331 L72,331 L72,332 L71,332 L71,334 L70,334 L70,341 L71,341 L71,343 L72,343 L72,344 L73,344 L73,345 L74,345 L74,346 L77,346 L77,347 L85,347 L85,346 L88,346 L88,345 L90,345 L90,344 L93,344 L93,343 L95,343 L95,342 L96,342 L96,341 L98,341 L98,340 L100,340 L100,339 L102,339 L102,338 L104,338 L104,337 L105,337 L105,336 L107,336 L107,335 L108,335 L108,334 L110,334 L110,333 L111,333 L111,332 L113,332 L113,331 L114,331 L114,330 L115,330 L115,329 L117,329 L117,328 L118,328 L118,327 L119,327 L119,326 L120,326 L120,325 L122,325 L122,324 L123,324 L123,323 L124,323 L124,322 L125,322 L125,321 L126,321 L126,320 L128,320 L128,319 L129,319 L129,318 L130,318 L130,317 L131,317 L131,316 L132,316 L132,315 L133,315 L133,314 L134,314 L134,313 L136,313 L136,312 L137,312 L137,311 L138,311 L138,310 L139,310 L139,309 L140,309 L140,308 L142,308 L142,307 L143,307 L143,306 L144,306 L144,305 L145,305 L145,304 L146,304 L146,303 L147,303 L147,302 L148,302 L148,301 L149,301 L149,300 L150,300 L150,299 L151,299 L151,298 L152,298 L152,297 L153,297 L153,296 L154,296 L154,295 L155,295 L155,294 L156,294 L156,293 L157,293 L157,292 L158,292 L158,291 L159,291 L159,290 L160,290 L160,289 L161,289 L161,288 L162,288 L162,287 L163,287 L163,286 L164,286 L164,285 L165,285 L165,284 L166,284 L166,282 L167,282 L167,281 L168,281 L168,280 L170,280 L170,279 L171,279 L171,278 L172,278 L172,277 L173,277 L173,276 L174,276 L174,275 L175,275 L175,274 L177,274 L177,273 L178,273 L178,272 L179,272 L179,271 L181,271 L181,270 L182,270 L182,269 L184,269 L184,268 L185,268 L185,267 L187,267 L187,266 L189,266 L189,265 L191,265 L191,264 L193,264 L193,263 L195,263 L195,262 L197,262 L197,261 L199,261 L199,260 L201,260 L201,259 L203,259 L203,258 L205,258 L205,257 L207,257 L207,256 L209,256 L209,255 L211,255 L211,254 L213,254 L213,253 L215,253 L215,252 L216,252 L216,251 L218,251 L218,250 L220,250 L220,249 L222,249 L222,248 L224,248 L224,247 L226,247 L226,246 L228,246 L228,245 L229,245 L229,244 L231,244 L231,243 L233,243 L233,242 L235,242 L235,241 L236,241 L236,240 L238,240 L238,239 L239,239 L239,238 L241,238 L241,239 L242,239 L242,243 L241,243 L241,249 L240,249 L240,253 L239,253 L239,256 L238,256 L238,259 L237,259 L237,261 L236,261 L236,264 L235,264 L235,266 L234,266 L234,269 L233,269 L233,271 L232,271 L232,274 L231,274 L231,277 L230,277 L230,280 L229,280 L229,284 L228,284 L228,289 L227,289 L227,297 L228,297 L228,300 L229,300 L229,303 L230,303 L230,305 L231,305 L231,307 L232,307 L232,308 L233,308 L233,310 L234,310 L234,311 L235,311 L235,312 L236,312 L236,313 L237,313 L237,314 L238,314 L238,315 L239,315 L239,316 L241,316 L241,317 L242,317 L242,318 L244,318 L244,319 L246,319 L246,320 L249,320 L249,321 L255,321 L255,320 L257,320 L257,319 L258,319 L258,318 L259,318 L259,315 L260,315 L260,301 L261,301 L261,296 L262,296 L262,291 L263,291 L263,285 L264,285 L264,279 L265,279 L265,274 L266,274 L266,269 L267,269 L267,266 L268,266 L268,263 L269,263 L269,261 L270,261 L270,258 L271,258 L271,257 L272,257 L272,255 L273,255 L273,253 L274,253 L274,252 L275,252 L275,250 L276,250 L276,249 L277,249 L277,247 L278,247 L278,246 L279,246 L279,244 L280,244 L280,243 L281,243 L281,241 L282,241 L282,239 L283,239 L283,238 L284,238 L284,236 L285,236 L285,233 L286,233 L286,231 L287,231 L287,227 L288,227 L288,223 L289,223 L289,220 L290,220 L290,217 L291,217 L291,214 L292,214 L292,211 L293,211 L293,209 L294,209 L294,206 L295,206 L295,203 L296,203 L296,201 L297,201 L297,198 L298,198 L298,196 L299,196 L299,193 L300,193 L300,190 L301,190 L301,187 L302,187 L302,184 L303,184 L303,181 L304,181 L304,177 L305,177 L305,159 L304,159 L304,140 L305,140 L305,132 L306,132 L306,128 L307,128 L307,124 L308,124 L308,121 L309,121 L309,119 L310,119 L310,116 L311,116 L311,114 L312,114 L312,112 L313,112 L313,110 L314,110 L314,108 L315,108 L315,106 L316,106 L316,104 L317,104 L317,103 L318,103 L318,101 L319,101 L319,99 L320,99 L320,98 L321,98 L321,96 L322,96 L322,94 L323,94 L323,93 L324,93 L324,91 L325,91 L325,90 L326,90 L326,88 L327,88 L327,87 L328,87 L328,85 L329,85 L329,84 L330,84 L330,82 L331,82 L331,81 L332,81 L332,79 L333,79 L333,78 L334,78 L334,76 L335,76 L335,75 L336,75 L336,73 L337,73 L337,72 L338,72 L338,71 L339,71 L339,69 L340,69 L340,68 L341,68 L341,66 L342,66 L342,65 L343,65 L343,63 L344,63 L344,62 L345,62 L345,61 L346,61 L346,59 L347,59 L347,58 L348,58 L348,57 L349,57 L349,55 L350,55 L350,54 L351,54 L351,52 L352,52 L352,51 L353,51 L353,50 L354,50 L354,48 L355,48 L355,47 L356,47 L356,46 L357,46 L357,44 L358,44 L358,43 L359,43 L359,42 L360,42 L360,40 L361,40 L361,39 L362,39 L362,38 L363,38 L363,36 L364,36 L364,35 L365,35 L365,34 L366,34 L366,33 L367,33 L367,31 L368,31 L368,30 L369,30 L369,29 L370,29 L370,28 L371,28 L371,26 L372,26 L372,25 L373,25 L373,24 L374,24 L374,23 L375,23 L375,21 L376,21 L376,20 L377,20 L377,19 L378,19 L378,18 L379,18 L379,16 L380,16 L380,15 L381,15 L381,14 L382,14 L382,13 L383,13 L383,12 L384,12 L384,10 L385,10 L385,9 L386,9 L386,8 L387,8 L387,7 L388,7 L388,6 L389,6 L389,5 L390,5 L390,4 L391,4 L391,2 L392,2 L392,1 L393,1 L393,0 L274,0 L274,1 L273,1 L273,3 L272,3 L272,4 L271,4 L271,6 L270,6 L270,7 L269,7 L269,9 L268,9 L268,10 L267,10 L267,11 L266,11 L266,13 L265,13 L265,14 L264,14 L264,15 L263,15 L263,17 L262,17 L262,18 L261,18 L261,19 L260,19 L260,21 L259,21 L259,22 L258,22 L258,23 L257,23 L257,24 L256,24 L256,26 L255,26 L255,27 L254,27 L254,28 L253,28 L253,29 L252,29 L252,30 L251,30 L251,32 L250,32 L250,33 L249,33 L249,34 L248,34 L248,35 L247,35 L247,36 L246,36 L246,37 L245,37 L245,39 L244,39 L244,40 L243,40 L243,41 L242,41 L242,42 L241,42 L241,43 L240,43 L240,45 L239,45 L239,46 L238,46 L238,47 L237,47 L237,48 L236,48 L236,50 L235,50 L235,51 L234,51 L234,52 L233,52 L233,54 L232,54 L232,55 L231,55 L231,57 L230,57 L230,59 L229,59 L229,60 L228,60 L228,62 L227,62 L227,64 L226,64 L226,65 L225,65 L225,67 L224,67 L224,69 L223,69 L223,71 L222,71 L222,73 L221,73 L221,75 L220,75 L220,77 L219,77 L219,79 L218,79 L218,80 L217,80 L217,82 L216,82 L216,83 L214,83 L214,84 L212,84 L212,85 L209,85 L209,86 L207,86 L207,87 L205,87 L205,88 L203,88 L203,89 L201,89 L201,90 L199,90 L199,91 L197,91 L197,92 L195,92 L195,93 L194,93 L194,94 L192,94 L192,95 L191,95 L191,96 L190,96 L190,97 L188,97 L188,98 L187,98 L187,99 L186,99 L186,100 L184,100 L184,101 L183,101 L183,102 L182,102 L182,103 L181,103 L181,104 L179,104 L179,105 L178,105 L178,106 L177,106 L177,107 L176,107 L176,108 L174,108 L174,109 L173,109 L173,110 L172,110 L172,111 L171,111 L171,112 L169,112 L169,113 L168,113 L168,114 L167,114 L167,115 L165,115 L165,116 L164,116 L164,117 L163,117 L163,118 L161,118 L161,119 L160,119 L160,120 L158,120 L158,121 L156,121 L156,122 L154,122 L154,123 L152,123 L152,124 L149,124 L149,125 L146,125 L146,126 L142,126 L142,127 L139,127 L139,128 L136,128 L136,129 L133,129 L133,130 L130,130 L130,131 L128,131 L128,132 L125,132 L125,132 Z" id="Hand" fill="#000000"></path>
    </g>
</svg>