<?xml version="1.0" encoding="UTF-8" standalone="no"?>
<svg width="95px" height="84px" viewBox="0 0 95 84" version="1.1" xmlns="http://www.w3.org/2000/svg" xmlns:xlink="http://www.w3.org/1999/xlink">
    <!-- Generator: Sketch 3.6.1 (26313) - http://www.bohemiancoding.com/sketch -->
    <title>Shape</title>
    <desc>Created with Sketch.</desc>
    <defs></defs>
    <g id="Page-1" stroke="none" stroke-width="1" fill="none" fill-rule="evenodd">
        <path d="M32,32 L32,31 L35,31 L35,30 L38,30 L38,29 L40,29 L40,28 L41,28 L41,27 L42,27 L42,26 L43,26 L43,25 L45,25 L45,24 L46,24 L46,23 L47,23 L47,22 L49,22 L49,21 L51,21 L51,20 L53,20 L53,18 L54,18 L54,16 L55,16 L55,15 L56,15 L56,13 L57,13 L57,12 L58,12 L58,10 L59,10 L59,9 L60,9 L60,8 L61,8 L61,7 L62,7 L62,6 L63,6 L63,4 L64,4 L64,3 L65,3 L65,2 L66,2 L66,0 L95,0 L95,1 L94,1 L94,2 L93,2 L93,3 L92,3 L92,4 L91,4 L91,6 L90,6 L90,7 L89,7 L89,8 L88,8 L88,9 L87,9 L87,11 L86,11 L86,12 L85,12 L85,13 L84,13 L84,15 L83,15 L83,16 L82,16 L82,18 L81,18 L81,19 L80,19 L80,21 L79,21 L79,22 L78,22 L78,24 L77,24 L77,25 L76,25 L76,27 L75,27 L75,30 L74,30 L74,44 L73,44 L73,47 L72,47 L72,49 L71,49 L71,52 L70,52 L70,56 L69,56 L69,58 L68,58 L68,59 L67,59 L67,61 L66,61 L66,63 L65,63 L65,65 L64,65 L64,71 L63,71 L63,77 L62,77 L62,78 L60,78 L60,77 L58,77 L58,76 L57,76 L57,75 L56,75 L56,73 L55,73 L55,69 L56,69 L56,66 L57,66 L57,64 L58,64 L58,60 L59,60 L59,58 L57,58 L57,59 L55,59 L55,60 L53,60 L53,61 L51,61 L51,62 L49,62 L49,63 L47,63 L47,64 L45,64 L45,65 L44,65 L44,66 L42,66 L42,67 L41,67 L41,68 L40,68 L40,69 L39,69 L39,70 L38,70 L38,71 L37,71 L37,72 L36,72 L36,73 L35,73 L35,74 L34,74 L34,75 L33,75 L33,76 L32,76 L32,77 L31,77 L31,78 L29,78 L29,79 L28,79 L28,80 L27,80 L27,81 L25,81 L25,82 L24,82 L24,83 L22,83 L22,84 L18,84 L18,83 L17,83 L17,81 L18,81 L18,80 L19,80 L19,79 L20,79 L20,78 L21,78 L21,77 L22,77 L22,76 L24,76 L24,75 L25,75 L25,74 L26,74 L26,73 L27,73 L27,72 L28,72 L28,71 L29,71 L29,70 L30,70 L30,69 L31,69 L31,68 L32,68 L32,67 L33,67 L33,66 L35,66 L35,65 L36,65 L36,64 L37,64 L37,63 L38,63 L38,62 L40,62 L40,61 L41,61 L41,60 L43,60 L43,59 L47,59 L47,58 L49,58 L49,57 L51,57 L51,56 L52,56 L52,55 L54,55 L54,54 L60,54 L60,53 L64,53 L64,52 L66,52 L66,50 L57,50 L57,49 L56,49 L56,48 L59,48 L59,47 L61,47 L61,46 L64,46 L64,45 L66,45 L66,44 L68,44 L68,41 L65,41 L65,42 L63,42 L63,43 L60,43 L60,44 L57,44 L57,45 L56,45 L56,43 L57,43 L57,42 L59,42 L59,41 L60,41 L60,40 L61,40 L61,39 L62,39 L62,38 L64,38 L64,37 L65,37 L65,34 L62,34 L62,35 L61,35 L61,36 L60,36 L60,37 L58,37 L58,38 L57,38 L57,39 L55,39 L55,37 L56,37 L56,36 L57,36 L57,35 L58,35 L58,34 L59,34 L59,33 L60,33 L60,31 L59,31 L59,30 L58,30 L58,31 L56,31 L56,32 L55,32 L55,33 L54,33 L54,34 L53,34 L53,35 L52,35 L52,36 L51,36 L51,37 L50,37 L50,38 L49,38 L49,39 L48,39 L48,40 L47,40 L47,41 L46,41 L46,42 L41,42 L41,41 L40,41 L40,38 L39,38 L39,37 L35,37 L35,38 L36,38 L36,40 L37,40 L37,43 L36,43 L36,48 L37,48 L37,52 L36,52 L36,54 L35,54 L35,55 L34,55 L34,56 L32,56 L32,57 L31,57 L31,58 L29,58 L29,59 L27,59 L27,60 L25,60 L25,61 L23,61 L23,62 L19,62 L19,63 L14,63 L14,64 L9,64 L9,65 L2,65 L2,64 L1,64 L1,61 L2,61 L2,60 L6,60 L6,59 L10,59 L10,58 L13,58 L13,57 L16,57 L16,56 L19,56 L19,55 L22,55 L22,54 L27,54 L27,53 L31,53 L31,52 L33,52 L33,51 L34,51 L34,49 L33,49 L33,48 L30,48 L30,49 L26,49 L26,50 L22,50 L22,51 L16,51 L16,52 L11,52 L11,53 L8,53 L8,54 L5,54 L5,55 L1,55 L1,54 L0,54 L0,51 L1,51 L1,50 L4,50 L4,49 L7,49 L7,48 L10,48 L10,47 L14,47 L14,46 L17,46 L17,45 L20,45 L20,44 L25,44 L25,43 L29,43 L29,42 L31,42 L31,39 L25,39 L25,40 L17,40 L17,41 L13,41 L13,42 L8,42 L8,41 L7,41 L7,39 L8,39 L8,38 L9,38 L9,37 L12,37 L12,36 L18,36 L18,35 L21,35 L21,34 L26,34 L26,33 L30,33 L30,32 L32,32 L32,32 Z" id="Shape" fill="#000000"></path>
    </g>
</svg>